<?xml version="1.0" standalone="no"?>
<!DOCTYPE svg PUBLIC "-//W3C//DTD SVG 20010904//EN"
 "http://www.w3.org/TR/2001/REC-SVG-20010904/DTD/svg10.dtd">
<svg version="1.0" xmlns="http://www.w3.org/2000/svg"
 width="415.000000pt" height="415.000000pt" viewBox="0 0 415.000000 415.000000"
 preserveAspectRatio="xMidYMid meet">
<metadata>
Created by potrace 1.14, written by Peter Selinger 2001-2017
</metadata>
<g transform="translate(0.000000,415.000000) scale(0.100000,-0.100000)"
fill="#000000" stroke="none">
<path d="M223 4043 c-27 -5 -81 -57 -94 -89 -6 -16 -8 -338 -7 -847 3 -789 4
-823 22 -850 10 -16 36 -37 57 -47 36 -19 67 -20 856 -20 921 0 864 -5 910 76
l23 39 0 813 c0 801 0 813 -21 853 -14 29 -32 46 -62 60 -40 18 -76 19 -852
17 -445 0 -820 -3 -832 -5z"/>
<path d="M2200 4031 c-19 -11 -45 -37 -58 -59 l-22 -40 2 -1854 c3 -1773 4
-1854 21 -1880 10 -15 30 -35 45 -45 25 -17 74 -18 862 -21 771 -3 837 -2 867
14 18 9 41 29 50 43 17 25 18 126 21 1884 2 1705 1 1860 -14 1889 -22 42 -36
56 -78 73 -30 13 -157 15 -848 15 -772 -1 -815 -2 -848 -19z"/>
<path d="M197 2039 c-27 -14 -44 -33 -58 -64 -19 -42 -19 -72 -17 -897 3 -806
4 -854 21 -880 10 -15 30 -35 45 -45 26 -17 71 -18 863 -18 924 0 867 -4 913
66 l26 38 0 844 c0 871 0 887 -40 929 -45 49 -34 48 -902 48 -794 -1 -814 -2
-851 -21z"/>
</g>
</svg>
